<svg xmlns="http://www.w3.org/2000/svg" width="24" height="28" viewBox="0 0 24 28"><title>file-code-o</title><path d="M22.937 5.938c.578.578 1.062 1.734 1.062 2.562v18a1.5 1.5 0 0 1-1.5 1.5h-21a1.5 1.5 0 0 1-1.5-1.5v-25a1.5 1.5 0 0 1 1.5-1.5h14c.828 0 1.984.484 2.562 1.062zM16 2.125V8h5.875c-.094-.266-.234-.531-.344-.641L16.64 2.468c-.109-.109-.375-.25-.641-.344zM22 26V10h-6.5A1.5 1.5 0 0 1 14 8.5V2H2v24h20zM7.5 12a.5.5 0 0 1 .703-.094L9 12.5a.5.5 0 0 1 .094.703L6.25 17l2.844 3.797A.5.5 0 0 1 9 21.5l-.797.594A.5.5 0 0 1 7.5 22l-3.531-4.703a.517.517 0 0 1 0-.594zm12.531 4.703a.517.517 0 0 1 0 .594L16.5 22a.5.5 0 0 1-.703.094L15 21.5a.5.5 0 0 1-.094-.703L17.75 17l-2.844-3.797A.5.5 0 0 1 15 12.5l.797-.594A.5.5 0 0 1 16.5 12zm-9.687 7.203a.496.496 0 0 1-.406-.578l2.156-12.984a.496.496 0 0 1 .578-.406l.984.156a.496.496 0 0 1 .406.578l-2.156 12.984a.496.496 0 0 1-.578.406z"/></svg>