<svg xmlns="http://www.w3.org/2000/svg" id="globe" width="18" height="18" viewBox="1 1 18 18"><title>globe</title><path d="M16.5 14.9h-2.8c-.5 1.1-1.1 2.1-1.8 3 1.9-.4 3.5-1.6 4.6-3m-6.1 3.2c.9-.8 1.7-1.9 2.3-3.2h-2.3v3.2zm0-4.1h2.7c.4-1.1.6-2.3.7-3.6h-3.4V14zm4.3-3.6c0 1.3-.3 2.5-.6 3.6h3c.6-1.1 1-2.3 1.1-3.6h-3.5zm-6.6 7.5c-.7-.9-1.4-1.9-1.8-3H3.5c1.1 1.4 2.7 2.6 4.6 3m1.5-3H7.2c.6 1.3 1.4 2.4 2.3 3.2v-3.2zm0-4.5H6.2c0 1.3.3 2.5.7 3.6h2.7v-3.6zm-7.7 0c.1 1.3.4 2.5 1.1 3.6h3c-.4-1.1-.6-2.3-.6-3.6H1.9zm10-8.3c.7.9 1.4 1.9 1.8 3h2.8c-1.1-1.4-2.7-2.6-4.6-3m-1.5 3h2.3c-.6-1.3-1.4-2.4-2.3-3.2v3.2zm0 4.5h3.4c0-1.3-.3-2.5-.7-3.6h-2.7v3.6zm7.7 0C18 8.3 17.7 7.1 17 6h-3c.4 1.1.6 2.3.6 3.6h3.5zM3.5 5.1h2.8C6.7 4 7.4 3 8.1 2.1c-1.9.4-3.5 1.6-4.6 3m6.1-3.2c-.9.8-1.7 1.9-2.3 3.2h2.3V1.9zm0 4.1H6.9c-.4 1.1-.7 2.3-.7 3.6h3.4V6zM5.3 9.6c0-1.3.3-2.5.6-3.6h-3c-.6 1.1-1 2.3-1.1 3.6h3.5zM19 10c0 5-4 9-9 9s-9-4-9-9 4-9 9-9 9 4 9 9" clip-path="url(#SVGID_2_)"/></svg>