<svg height="21" viewBox="0 0 21 21" width="21" xmlns="http://www.w3.org/2000/svg"><path d="M19.766 4.602c.182.182.273.481.273.898h-5v-5c.417 0 .716.091.898.273zm-5.977 1.21c0 .26.091.482.273.665a.904.904 0 0 0 .665.273h5.312v12.812c0 .26-.091.482-.273.665a.904.904 0 0 1-.664.273H8.789v-3.555c.73-.312 1.198-.846 1.406-1.601.052-.287.085-.436.098-.45l.293-.292c.651-.651.86-1.433.625-2.344-.078-.26-.117-.404-.117-.43s.039-.17.117-.43c.234-.885.026-1.653-.625-2.304a.442.442 0 0 0-.156-.157.7.7 0 0 1-.196-.39 1.517 1.517 0 0 0-.078-.195c-.234-.912-.794-1.485-1.68-1.72-.052-.025-.117-.045-.195-.058s-.123-.02-.136-.02-.046-.012-.098-.038c-.052-.026-.078-.046-.078-.059s-.026-.046-.078-.098a.612.612 0 0 1-.118-.156A2.338 2.338 0 0 0 6.055 5.5c-.209 0-.547.065-1.016.195V1.437c0-.26.091-.481.273-.664A.904.904 0 0 1 5.977.5h7.812zm-4.102 7.891c-.286.313-.449.508-.488.586-.039.078-.11.326-.215.742a1.18 1.18 0 0 1-.82.82c-.338.079-.547.144-.625.196V20.5l-2.5-1.25-2.5 1.25v-4.453c-.078-.052-.286-.117-.625-.195a1.183 1.183 0 0 1-.82-.82c-.104-.417-.176-.665-.215-.743-.04-.078-.202-.273-.488-.586-.313-.312-.417-.69-.313-1.133.104-.39.156-.631.156-.722 0-.091-.052-.345-.156-.762-.104-.443 0-.82.313-1.133.286-.286.449-.469.488-.547.039-.078.11-.325.215-.742.13-.443.403-.716.82-.82.39-.104.632-.183.723-.235s.28-.221.566-.507c.313-.313.677-.417 1.094-.313.39.104.638.156.742.156.104 0 .352-.052.742-.156.417-.104.781 0 1.094.313.286.286.475.455.566.507.092.052.332.13.723.235.417.104.69.377.82.82.105.417.176.664.215.742s.202.26.488.547c.313.313.417.69.313 1.133-.104.417-.156.67-.156.762 0 .09.052.332.156.722.104.443 0 .82-.313 1.133zm-4.648.547c.703 0 1.296-.24 1.777-.723.482-.481.723-1.074.723-1.777s-.24-1.296-.723-1.777C6.335 9.49 5.742 9.25 5.04 9.25s-1.296.24-1.777.723-.723 1.074-.723 1.777c0 .443.11.86.332 1.25.221.39.527.697.918.918.39.221.807.332 1.25.332z" fill="#57068c"/></svg>